<svg xmlns="http://www.w3.org/2000/svg" xmlns:xlink="http://www.w3.org/1999/xlink" fill="none" version="1.1" width="20" height="20" viewBox="0 0 20 20"><defs><clipPath id="master_svg0_21_8817/21_8240"><rect x="0" y="0" width="20" height="20" rx="0"/></clipPath></defs><g clip-path="url(#master_svg0_21_8817/21_8240)"><g><path d="M9.4025378125,2.8777539436798096C9.5946078125,2.4886379436798096,9.6906378125,2.2940799436798094,9.8210178125,2.2319185436798095C9.9344478125,2.1778350436798095,10.0662278125,2.1778350436798095,10.1796578125,2.2319185436798095C10.3100378125,2.2940799436798094,10.4060678125,2.4886379436798096,10.5981478125,2.8777539436798096C10.5981478125,2.8777539436798096,12.4204078125,6.56939594367981,12.4204078125,6.56939594367981C12.4771078125,6.68426594367981,12.5054078125,6.7417059436798095,12.5469078125,6.786305943679809C12.5835078125,6.82578594367981,12.6275078125,6.85778594367981,12.6764078125,6.880505943679809C12.7316078125,6.906175943679809,12.7950078125,6.915435943679809,12.9218078125,6.93396594367981C12.9218078125,6.93396594367981,16.9978078125,7.52974594367981,16.9978078125,7.52974594367981C17.4270078125,7.59248594367981,17.6416078125,7.62385594367981,17.7410078125,7.728685943679809C17.8274078125,7.81989594367981,17.8680078125,7.945235943679809,17.8516078125,8.06980594367981C17.8327078125,8.21297594367981,17.6773078125,8.36430594367981,17.3665078125,8.666975943679809C17.3665078125,8.666975943679809,14.4182078125,11.53867594367981,14.4182078125,11.53867594367981C14.3263078125,11.62819594367981,14.2803078125,11.67295594367981,14.2507078125,11.72620594367981C14.2244078125,11.77336594367981,14.2076078125,11.82516594367981,14.2011078125,11.87874594367981C14.1937078125,11.93925594367981,14.2046078125,12.00248594367981,14.2263078125,12.12893594367981C14.2263078125,12.12893594367981,14.9220078125,16.18505594367981,14.9220078125,16.18505594367981C14.9953078125,16.61285594367981,15.0320078125,16.82675594367981,14.9631078125,16.95375594367981C14.9031078125,17.064155943679808,14.7964078125,17.141655943679808,14.6729078125,17.164555943679808C14.5308078125,17.190855943679807,14.3387078125,17.089855943679808,13.9546078125,16.88785594367981C13.9546078125,16.88785594367981,10.3106378125,14.97155594367981,10.3106378125,14.97155594367981C10.1970978125,14.911855943679809,10.1403378125,14.88195594367981,10.0805278125,14.87025594367981C10.027577812499999,14.85985594367981,9.9731078125,14.85985594367981,9.9201478125,14.87025594367981C9.860347812499999,14.88195594367981,9.8035778125,14.911855943679809,9.6900378125,14.97155594367981C9.6900378125,14.97155594367981,6.046097812499999,16.88785594367981,6.046097812499999,16.88785594367981C5.6619178125000005,17.089855943679808,5.4698378125,17.190855943679807,5.3277978125,17.164555943679808C5.2042278125,17.141655943679808,5.0975978125,17.064155943679808,5.0376078125,16.95375594367981C4.9686578125,16.82675594367981,5.0053478125,16.61285594367981,5.0787178125,16.18505594367981C5.0787178125,16.18505594367981,5.7743978125,12.12893594367981,5.7743978125,12.12893594367981C5.7960878125,12.00248594367981,5.8069278125,11.93925594367981,5.7995878125,11.87874594367981C5.7930978125,11.82516594367981,5.776247812499999,11.77336594367981,5.7499978125,11.72620594367981C5.7203478125,11.67295594367981,5.6743878125,11.62819594367981,5.5824778125000005,11.53867594367981C5.5824778125000005,11.53867594367981,2.6341248125,8.666975943679809,2.6341248125,8.666975943679809C2.3233778125,8.36430594367981,2.1680044125,8.21297594367981,2.1490974225,8.06980594367981C2.1326473125,7.945235943679809,2.1732868125,7.81989594367981,2.2597008125,7.728685943679809C2.3590218125,7.62385594367981,2.5736348125,7.59248594367981,3.0028618125,7.52974594367981C3.0028618125,7.52974594367981,7.0789178125,6.93396594367981,7.0789178125,6.93396594367981C7.2056778125,6.915435943679809,7.2690578125,6.906175943679809,7.3242578125,6.880505943679809C7.3731278125,6.85778594367981,7.4171278125,6.82578594367981,7.4538178125,6.786305943679809C7.4952478125,6.7417059436798095,7.5235978125,6.68426594367981,7.5803078125,6.56939594367981C7.5803078125,6.56939594367981,9.4025378125,2.8777539436798096,9.4025378125,2.8777539436798096Z" fill="#453311" fill-opacity="1"/><path d="M10.3948478125,1.7805939436798095Q10.0003378125,1.5924939436798096,9.6058278125,1.7805939436798095Q9.3190078125,1.9173479436798095,8.954187812499999,2.6564339436798097L8.9541778125,2.6564419436798095L7.1319478125,6.348085943679809Q7.1075778125,6.39745594367981,7.0929178125,6.42616594367981Q7.0610878125,6.43126594367981,7.0066078125,6.439225943679809L2.9305478125,7.03500594367981Q2.1152341125,7.154175943679809,1.8967298125,7.38480594367981Q1.5961888124999999,7.702035943679809,1.6534008125,8.135265943679808Q1.6949968125,8.450235943679811,2.2852588125,9.02515594367981L5.2336178125,11.896845943679809Q5.2731178125,11.935325943679809,5.2959378125,11.958175943679809Q5.2909178125,11.99006594367981,5.281597812499999,12.044415943679809L4.5859178125,16.100555943679808Q4.4465478125,16.91315594367981,4.5982378125,17.192355943679807Q4.8068778125,17.57645594367981,5.2366678125,17.65615594367981Q5.5491378125,17.71405594367981,6.2788178125,17.33035594367981L9.9227678125,15.41405594367981Q9.9715578125,15.388355943679809,10.0003378125,15.373755943679809Q10.029117812500001,15.388355943679809,10.0779178125,15.41405594367981L13.7219078125,17.33035594367981Q14.4515078125,17.71405594367981,14.7640078125,17.65615594367981Q15.1938078125,17.57645594367981,15.4024078125,17.192355943679807Q15.5541078125,16.91315594367981,15.4148078125,16.100555943679808L14.7191078125,12.044415943679809Q14.7098078125,11.99008594367981,14.7047078125,11.958175943679809Q14.7276078125,11.935325943679809,14.7670078125,11.89686594367981L14.7671078125,11.896845943679809L17.7154078125,9.02515594367981Q18.3057078125,8.450235943679811,18.3473078125,8.135265943679808Q18.4045078125,7.70204594367981,18.103907812499997,7.38480594367981Q17.8854078125,7.154175943679809,17.070107812499998,7.03500594367981L12.9941078125,6.439225943679809Q12.9396078125,6.431255943679809,12.9078078125,6.42616594367981Q12.8931078125,6.39749594367981,12.8687078125,6.348085943679809L11.0464978125,2.6564419436798095Q10.6816778125,1.9173479436798095,10.3948478125,1.7805939436798095ZM10.0003378125,2.8034309436798095Q9.9439078125,2.9106249436798097,9.8508878125,3.0990569436798094L9.8508878125,3.0990659436798094L8.0286578125,6.79070594367981Q7.9112678125,7.02852594367981,7.8201178125,7.126635943679809Q7.6978978125,7.2581759436798094,7.5350878125,7.333885943679809Q7.4136578125,7.390355943679809,7.1512278125,7.428715943679809L3.0751758125,8.02448594367981Q2.8673298125,8.05486594367981,2.7479968125000003,8.07549594367981Q2.8325138125000002,8.16222594367981,2.9829918125,8.30879594367981L5.9313478125,11.18049594367981Q6.121607812500001,11.36580594367981,6.1868478125,11.48297594367981Q6.2743078125,11.64006594367981,6.2959578125,11.81855594367981Q6.3120978125,11.95168594367981,6.2671978125,12.21345594367981L5.571527812499999,16.26965594367981Q5.5359878125,16.47675594367981,5.5186278125,16.59675594367981Q5.6273078125,16.54315594367981,5.8133678125,16.44525594367981L9.4573078125,14.52895594367981Q9.6923478125,14.40535594367981,9.8239278125,14.37955594367981Q10.0003378125,14.34495594367981,10.1767478125,14.37955594367981Q10.3083278125,14.40535594367981,10.5433678125,14.52895594367981L14.1873078125,16.44525594367981Q14.3734078125,16.54315594367981,14.4820078125,16.59675594367981Q14.4647078125,16.47675594367981,14.4291078125,16.26965594367981L13.7335078125,12.21345594367981Q13.6886078125,11.95168594367981,13.7047078125,11.81855594367981Q13.7264078125,11.64006594367981,13.8138078125,11.48297594367981Q13.8791078125,11.36580594367981,14.0693078125,11.18050594367981L14.0693078125,11.18049594367981L17.0177078125,8.30879594367981Q17.1682078125,8.16223594367981,17.2527078125,8.07550594367981Q17.1333078125,8.05486594367981,16.9255078125,8.02448594367981L12.8494078125,7.428715943679809Q12.5870078125,7.390355943679809,12.4656078125,7.333885943679809Q12.3028078125,7.25816594367981,12.1806078125,7.126635943679809Q12.0894078125,7.02852594367981,11.9720178125,6.79070594367981L10.1497878125,3.0990649436798097Q10.0567778125,2.9106229436798094,10.0003378125,2.8034309436798095Z" fill-rule="evenodd" fill="#453311" fill-opacity="1"/></g></g></svg>